<svg width="326" height="65" viewBox="0 0 326 65" fill="none" xmlns="http://www.w3.org/2000/svg">
<path d="M324.796 43.1456C327.566 34.3031 313.363 28.5344 313.363 28.5344C313.363 28.5344 296.326 36.2096 293.617 34.9184C290.908 33.6273 306.903 25.5085 306.903 25.5085C302.343 21.9279 286.151 19.9707 286.151 19.9707C286.151 19.9707 277.12 35.8632 274.812 33.9441C272.503 32.0249 283.525 20.2805 283.525 20.2805C277.92 18.6852 270.023 21.3731 270.023 21.3731C258.826 26.8138 263.132 46.3728 255.933 50.3913C255.933 50.3913 254.468 51.0475 252.487 52.4865L253.769 53.3073C254.094 53.03 254.422 52.7709 254.754 52.5329C254.755 52.5301 254.756 52.5287 254.759 52.5287C254.765 52.5259 254.769 52.5217 254.773 52.5189C254.988 52.3766 255.293 52.1753 255.67 51.9317C255.67 51.9317 255.672 51.9317 255.672 51.9303C255.672 51.9289 255.673 51.9303 255.673 51.9289C256.554 51.4107 257.181 51.0137 257.61 50.7109C257.612 50.7095 257.613 50.7095 257.614 50.7081C260.326 49.048 265.605 46.7839 265.57 47.05C264.76 53.1665 275.236 60.9727 282.153 63.6282C289.069 66.2838 287.505 62.851 286 57.9412C284.496 53.0314 277.125 49.3564 275.787 46.9529C274.45 44.5494 278.131 45.3562 282.006 48.2779C285.882 51.1995 285.317 56.5866 291.503 61.4289C297.688 66.2697 310.617 57.0738 310.617 57.0738C305.168 55.5785 298.617 47.8498 299.305 46.0785C299.992 44.3072 311.966 52.188 314.149 52.9215C316.331 53.6509 322.027 51.988 324.796 43.1456Z" fill="#FFE5DF"/>
<path d="M0.760425 12.1688C2.08188 0.353998 21.735 0.949607 21.735 0.949607C21.735 0.949607 37.7626 18.7936 41.6088 18.6838C45.4565 18.574 30.8798 0.74825 30.8798 0.74825C38.0831 -1.08923 58.1003 5.01319 58.1003 5.01319C58.1003 5.01319 60.4832 28.35 64.1846 27.2939C67.8861 26.2393 61.0216 6.73804 61.0216 6.73804C68.426 7.77294 76.3027 15.0215 76.3027 15.0215C86.6311 27.2151 71.4653 47.9371 77.8364 56.3867C77.8364 56.3867 79.2155 57.9159 80.797 60.632L78.8683 60.9291C78.6307 60.4348 78.3804 59.9617 78.1133 59.5098C78.1133 59.5055 78.1105 59.5041 78.1077 59.5013C78.1035 59.4943 78.0993 59.4886 78.0965 59.4816C77.9179 59.2028 77.6635 58.8072 77.3472 58.327L77.3458 58.3256C77.3458 58.3242 77.3444 58.3242 77.3444 58.3228C76.5768 57.2583 76.0482 56.4656 75.701 55.8883C75.6996 55.8869 75.6982 55.8841 75.6982 55.8827C73.3744 52.5273 68.35 47.1331 68.253 47.464C66.0417 55.0618 49.7105 58.7917 40.2199 58.3214C30.7293 57.8511 34.3394 54.6337 38.644 49.6507C42.9486 44.6677 53.4991 44.1777 56.3107 42.0515C59.1223 39.924 54.3862 38.9623 48.3258 40.3816C42.2654 41.8009 40.144 48.4173 30.3821 50.8912C20.6202 53.3651 10.2004 35.866 10.2004 35.866C17.3686 36.9362 29.0536 31.2632 29.1619 28.8273C29.2701 26.3914 11.1423 29.4313 8.20275 29.1596C5.26462 28.8892 -0.561031 23.9822 0.760425 12.1688Z" fill="#F9C5B9"/>
</svg>
