<svg width="261" height="284" viewBox="0 0 261 284" fill="none" xmlns="http://www.w3.org/2000/svg">
<path d="M260.349 153.84C260.349 161.832 259.63 169.665 258.249 177.266C254.932 195.51 247.82 212.425 237.753 227.165C214.369 261.421 175.051 283.902 130.492 283.902C77.4869 283.902 31.898 252.099 11.7198 206.496C9.05629 200.488 6.83584 194.239 5.10561 187.79C2.18519 176.97 0.630615 165.582 0.630615 153.84C0.630615 144.342 1.64778 135.076 3.57725 126.162C3.5956 126.057 3.62181 125.96 3.64279 125.857C9.03796 101.204 21.417 79.1772 38.596 61.9446C43.4669 57.0529 48.7284 52.5498 54.3307 48.4826C56.9994 46.5422 59.7521 44.6989 62.5702 42.9686C82.3263 30.7905 105.587 23.7719 130.495 23.7719C133.798 23.7719 137.07 23.8953 140.307 24.1421C144.882 24.4809 149.383 25.0559 153.806 25.862C172.435 29.2413 189.671 36.6064 204.622 47.0384H204.63C213.944 53.5318 222.365 61.2147 229.679 69.8769C233.52 74.4247 237.056 79.2376 240.252 84.2921C242.239 87.4378 244.1 90.67 245.823 93.9916C249.962 101.971 253.291 110.439 255.722 119.282C258.734 130.282 260.349 141.874 260.349 153.84Z" fill="#FFEAE2"/>
<path opacity="0.7" d="M86.3714 95.6169C81.1886 103.838 88.5342 118.111 72.9884 114.217C57.4425 110.324 47.9393 108.593 47.0768 117.24C46.2091 125.894 58.7376 125.894 58.7376 134.976C58.7376 144.059 53.1222 147.063 44.4868 142.749C35.8461 138.435 33.3661 132.159 23.3255 136.053C13.2849 139.947 7.45456 137.35 5.18691 129.565C4.78581 128.197 4.22741 127.086 3.57465 126.159C3.593 126.054 3.61921 125.957 3.64019 125.855C9.03536 101.202 21.4144 79.1746 38.5935 61.942C43.4643 57.0503 48.7258 52.5472 54.3281 48.4799C56.9968 46.5395 59.7495 44.6963 62.5677 42.9659C66.6153 43.1156 71.4548 44.6516 75.5811 49.7665C84.6491 61.0178 90.6944 55.3908 88.5368 68.3671C86.374 81.3435 89.8319 83.0764 97.1723 82.6406C104.513 82.2047 113.153 82.2047 114.013 87.8316C114.873 93.4559 91.5542 87.3957 86.3714 95.6169Z" fill="#FFD9C6"/>
<path opacity="0.7" d="M140.137 173.469C140.137 173.469 128.694 177.145 125.671 169.145C122.649 161.144 126.104 159.414 115.956 157.035C105.808 154.656 104.945 147.735 98.4675 148.601C91.9896 149.465 95.2299 152.062 87.6719 157.684C80.114 163.305 73.2062 160.711 73.4211 171.091C73.6361 181.47 84.8642 183.093 87.1319 189.906C89.3995 196.718 85.5118 199.637 90.3695 204.828C95.2273 210.02 104.295 207.748 100.085 214.885C95.8748 222.022 89.3969 227.536 92.6345 238.566C95.8722 249.594 93.6072 250.246 99.1124 258.031C104.618 265.816 115.306 268.41 116.926 263.222C118.546 258.031 109.475 251.22 112.391 246.029C115.306 240.838 120.164 244.406 122.106 236.621C124.049 228.835 131.932 228.835 132.579 223.429C133.227 218.023 123.079 209.804 126.964 206.344C130.852 202.883 138.625 212.616 144.67 203.965C150.715 195.313 146.612 188.394 152.875 180.176C159.138 171.957 144.458 168.712 140.137 173.469Z" fill="#FFD9C6"/>
<path opacity="0.7" d="M260.349 153.84C260.349 161.832 259.63 169.665 258.249 177.266C254.932 195.51 247.82 212.425 237.753 227.165C234.319 228.295 230.817 228.268 227.369 226.887C211.176 220.399 223.159 202.883 229.637 194.123C236.115 185.364 219.597 189.258 207.613 181.147C195.63 173.036 208.908 151.303 196.6 154.871C184.292 158.44 169.394 162.982 162.268 150.978C155.143 138.975 168.746 137.03 162.593 126.973C156.44 116.917 166.156 111.077 178.464 110.106C190.772 109.131 189.152 100.375 204.376 99.0749C219.599 97.7778 219.274 117.24 236.115 115.943C252.956 114.645 252.198 118.537 252.198 118.537C253.409 118.505 254.589 118.757 255.716 119.277C258.734 130.282 260.349 141.874 260.349 153.84Z" fill="#FFD9C6"/>
<path opacity="0.7" d="M245.817 93.9888C231.813 100.813 226.19 82.2519 214.22 87.8315C202.153 93.4558 204.263 82.6405 194.768 75.7191C185.264 68.8029 166.266 81.3434 167.128 70.528C167.991 59.718 182.242 62.7428 185.264 54.0937C188.29 45.4445 202.105 47.6055 202.105 47.6055C202.889 47.3062 203.731 47.1119 204.619 47.0357C204.619 47.0357 204.619 47.0305 204.627 47.0357C213.942 53.5291 222.362 61.212 229.676 69.8742C233.517 74.422 237.053 79.2349 240.249 84.2894C242.236 87.435 244.095 90.6673 245.817 93.9888Z" fill="#FFD9C6"/>
<path opacity="0.7" d="M127.831 56.6879C127.831 56.6879 135.172 46.08 123.514 42.9502C111.853 39.8203 112.071 43.9164 103 42.9502C93.9319 41.9839 90.3692 49.0103 97.1696 56.6879C103.97 64.3655 109.478 79.0985 115.631 71.2449C121.783 63.3914 120.596 57.4441 127.831 56.6879Z" fill="#FFD9C6"/>
<path d="M199.075 142.152C199.075 155.16 220.946 175.956 220.946 175.956C220.946 175.956 242.818 155.163 242.818 142.152C242.818 129.145 233.027 118.594 220.946 118.594C208.866 118.594 199.075 129.142 199.075 142.152ZM208.059 140.771C208.059 133.661 213.847 127.863 220.946 127.863C228.08 127.863 233.834 133.661 233.834 140.771C233.834 147.916 228.08 153.679 220.946 153.679C213.845 153.679 208.059 147.916 208.059 140.771Z" fill="#F05A22"/>
<path d="M124.389 59.3505C124.389 71.8463 145.399 91.8201 145.399 91.8201C145.399 91.8201 166.408 71.8463 166.408 59.3505C166.408 46.8546 157.002 36.722 145.399 36.722C133.796 36.7246 124.389 46.8546 124.389 59.3505ZM133.02 58.0245C133.02 51.1923 138.58 45.6258 145.399 45.6258C152.251 45.6258 157.778 51.1923 157.778 58.0245C157.778 64.8881 152.251 70.4231 145.399 70.4231C138.577 70.4231 133.02 64.8881 133.02 58.0245Z" fill="#F05A22"/>
<path d="M220.944 113.314C220.643 113.314 220.389 113.083 220.36 112.779C220.36 112.768 220.265 111.739 220.071 109.917C220.037 109.594 220.271 109.302 220.593 109.268C220.916 109.231 221.207 109.468 221.241 109.791C221.435 111.621 221.532 112.658 221.532 112.668C221.56 112.991 221.322 113.28 220.999 113.309C220.981 113.314 220.963 113.314 220.944 113.314ZM220.341 107.598C220.045 107.598 219.791 107.375 219.757 107.076C219.66 106.214 219.55 105.266 219.424 104.24C219.385 103.917 219.615 103.623 219.938 103.583C220.258 103.547 220.554 103.775 220.593 104.098C220.716 105.127 220.826 106.078 220.926 106.942C220.963 107.265 220.732 107.556 220.407 107.593C220.386 107.595 220.362 107.598 220.341 107.598ZM219.66 101.924C219.369 101.924 219.115 101.706 219.078 101.409C218.965 100.509 218.842 99.566 218.713 98.5813C218.671 98.2583 218.897 97.9616 219.219 97.9196C219.542 97.8776 219.838 98.1034 219.88 98.4264C220.011 99.411 220.132 100.359 220.244 101.26C220.286 101.583 220.056 101.877 219.733 101.919C219.71 101.921 219.683 101.924 219.66 101.924ZM218.915 96.2654C218.627 96.2654 218.373 96.0527 218.333 95.756C218.207 94.8423 218.076 93.8997 217.937 92.9334C217.89 92.6104 218.116 92.3137 218.436 92.2665C218.758 92.2192 219.054 92.445 219.101 92.7653C219.24 93.7342 219.371 94.6769 219.497 95.5932C219.542 95.9162 219.316 96.2129 218.994 96.2576C218.968 96.2628 218.942 96.2654 218.915 96.2654ZM218.108 90.6175C217.822 90.6175 217.57 90.4074 217.526 90.116C217.39 89.1944 217.248 88.257 217.099 87.2986C217.049 86.9756 217.269 86.6763 217.591 86.6264C217.909 86.5791 218.213 86.7971 218.263 87.12C218.409 88.0784 218.554 89.0211 218.69 89.9427C218.737 90.2657 218.517 90.565 218.194 90.6123C218.166 90.6149 218.137 90.6175 218.108 90.6175ZM217.237 84.9801C216.954 84.9801 216.703 84.7726 216.658 84.4838C216.511 83.5596 216.357 82.6222 216.199 81.6743C216.147 81.354 216.362 81.0494 216.684 80.9969C217.002 80.9443 217.308 81.1596 217.361 81.4826C217.518 82.4331 217.673 83.3731 217.819 84.3C217.872 84.6204 217.652 84.9249 217.332 84.9748C217.3 84.9801 217.269 84.9801 217.237 84.9801ZM216.304 79.3584C216.024 79.3584 215.775 79.1562 215.725 78.87C215.565 77.9458 215.402 77.0084 215.232 76.0657C215.174 75.7454 215.387 75.4382 215.707 75.3831C216.026 75.3279 216.333 75.538 216.388 75.8583C216.556 76.8036 216.721 77.741 216.881 78.6705C216.936 78.9908 216.721 79.2954 216.401 79.3505C216.37 79.3532 216.338 79.3584 216.304 79.3584ZM215.3 73.7446C215.022 73.7446 214.776 73.5477 214.723 73.2615C214.553 72.3346 214.375 71.4025 214.196 70.4651C214.136 70.1447 214.343 69.8375 214.663 69.7745C214.983 69.7115 215.29 69.9216 215.353 70.2419C215.533 71.1819 215.709 72.1167 215.882 73.0462C215.942 73.3665 215.73 73.6737 215.41 73.7341C215.374 73.742 215.337 73.7446 215.3 73.7446ZM214.225 68.1492C213.95 68.1492 213.704 67.9549 213.649 67.6766C213.465 66.7497 213.276 65.8202 213.082 64.8881C213.017 64.5703 213.221 64.2579 213.538 64.1922C213.858 64.124 214.168 64.3314 214.233 64.6491C214.427 65.5839 214.616 66.516 214.802 67.4455C214.865 67.7658 214.658 68.0757 214.341 68.1387C214.301 68.144 214.262 68.1492 214.225 68.1492ZM213.069 62.5669C212.797 62.5669 212.555 62.3779 212.495 62.1022C212.296 61.1805 212.094 60.2563 211.887 59.332C211.816 59.0143 212.015 58.6992 212.333 58.6283C212.65 58.5574 212.964 58.757 213.035 59.0747C213.242 60.0016 213.447 60.9311 213.646 61.8553C213.714 62.1731 213.512 62.4882 213.195 62.5564C213.15 62.5643 213.109 62.5669 213.069 62.5669ZM211.824 57.0135C211.557 57.0135 211.315 56.8297 211.252 56.5593C211.037 55.635 210.817 54.7081 210.594 53.7839C210.518 53.4688 210.712 53.1485 211.027 53.0723C211.344 52.9935 211.661 53.1905 211.737 53.5056C211.963 54.4324 212.183 55.3619 212.398 56.2914C212.472 56.6092 212.275 56.9242 211.958 57.0004C211.913 57.0083 211.869 57.0135 211.824 57.0135ZM210.479 51.468C210.217 51.468 209.976 51.2894 209.91 51.0242C209.677 50.1052 209.441 49.1862 209.197 48.2725C209.113 47.9574 209.302 47.6344 209.617 47.553C209.931 47.469 210.254 47.6581 210.335 47.9732C210.579 48.8922 210.815 49.8138 211.051 50.738C211.129 51.0531 210.941 51.3735 210.626 51.4549C210.576 51.4627 210.526 51.468 210.479 51.468ZM209.022 45.9592C208.765 45.9592 208.526 45.7886 208.455 45.526C208.201 44.6096 207.944 43.6985 207.682 42.7926C207.59 42.4802 207.771 42.1519 208.083 42.0627C208.395 41.9708 208.723 42.1519 208.812 42.4644C209.077 43.3755 209.336 44.2919 209.59 45.2135C209.677 45.526 209.493 45.8516 209.181 45.9382C209.126 45.954 209.074 45.9592 209.022 45.9592ZM207.435 40.4872C207.184 40.4872 206.95 40.3244 206.872 40.0697C206.594 39.1612 206.311 38.2475 206.025 37.3574C205.925 37.0475 206.096 36.7167 206.405 36.6169C206.715 36.5171 207.045 36.6878 207.144 36.9976C207.43 37.893 207.716 38.812 207.996 39.7258C208.091 40.0382 207.915 40.3664 207.606 40.461C207.551 40.4794 207.493 40.4872 207.435 40.4872ZM205.697 35.0599C205.451 35.0599 205.223 34.9049 205.139 34.6581C204.835 33.7549 204.52 32.8543 204.208 31.9773C204.098 31.6701 204.258 31.334 204.565 31.2237C204.872 31.1134 205.207 31.2736 205.317 31.5808C205.632 32.463 205.949 33.3715 206.256 34.2826C206.361 34.5899 206.195 34.926 205.886 35.031C205.823 35.052 205.76 35.0599 205.697 35.0599ZM147.95 33.1641C147.879 33.1641 147.805 33.151 147.735 33.1221C147.433 33.0039 147.284 32.6626 147.402 32.358C147.604 31.8381 147.808 31.3261 148.012 30.822C148.133 30.52 148.477 30.3756 148.778 30.4964C149.079 30.6198 149.224 30.9611 149.103 31.2631C148.901 31.762 148.699 32.2713 148.497 32.786C148.406 33.0223 148.186 33.1641 147.95 33.1641ZM203.778 29.6981C203.542 29.6981 203.317 29.5537 203.228 29.3174C202.887 28.4194 202.538 27.5319 202.192 26.6786C202.069 26.3766 202.216 26.0326 202.515 25.9119C202.816 25.7884 203.16 25.9355 203.28 26.2348C203.629 27.0961 203.983 27.994 204.326 28.8999C204.442 29.2045 204.29 29.5459 203.985 29.6614C203.917 29.685 203.847 29.6981 203.778 29.6981ZM149.651 29.0102C149.572 29.0102 149.494 28.9944 149.42 28.9629C149.121 28.8343 148.982 28.4877 149.111 28.1884C149.494 27.2982 149.882 26.4186 150.267 25.5758C150.403 25.2791 150.752 25.1504 151.046 25.2843C151.342 25.4208 151.47 25.7701 151.337 26.0668C150.954 26.9017 150.569 27.7735 150.191 28.6531C150.094 28.8763 149.879 29.0102 149.651 29.0102ZM201.634 24.4204C201.406 24.4204 201.191 24.2892 201.094 24.066C200.709 23.1811 200.315 22.312 199.927 21.4875C199.788 21.1934 199.914 20.8416 200.208 20.7024C200.501 20.5633 200.853 20.6893 200.992 20.9834C201.385 21.8184 201.781 22.698 202.171 23.5933C202.302 23.8927 202.166 24.2393 201.867 24.3679C201.791 24.4047 201.713 24.4204 201.634 24.4204ZM152.018 23.8402C151.932 23.8402 151.843 23.8218 151.759 23.7798C151.468 23.6353 151.347 23.2835 151.489 22.992C151.916 22.1203 152.354 21.2617 152.786 20.4425C152.938 20.1563 153.295 20.046 153.581 20.1983C153.866 20.3506 153.977 20.7077 153.824 20.9939C153.397 21.8026 152.965 22.6481 152.543 23.5093C152.443 23.7194 152.236 23.8402 152.018 23.8402ZM199.206 19.2661C198.991 19.2661 198.787 19.148 198.682 18.9458C198.244 18.0898 197.796 17.2522 197.348 16.4566C197.188 16.173 197.29 15.8133 197.573 15.6532C197.856 15.493 198.215 15.5928 198.375 15.8763C198.831 16.6851 199.285 17.5358 199.731 18.4049C199.88 18.6937 199.765 19.0508 199.476 19.1979C199.39 19.2451 199.298 19.2661 199.206 19.2661ZM154.682 18.8198C154.582 18.8198 154.48 18.7935 154.388 18.741C154.108 18.5782 154.011 18.2185 154.173 17.9349C154.661 17.0894 155.159 16.2623 155.654 15.4799C155.827 15.2042 156.192 15.1228 156.467 15.2961C156.742 15.4694 156.824 15.8343 156.648 16.11C156.163 16.8794 155.673 17.6907 155.193 18.5231C155.083 18.7121 154.884 18.8198 154.682 18.8198ZM196.412 14.3088C196.215 14.3088 196.024 14.2116 195.914 14.0331C195.403 13.2165 194.878 12.4288 194.356 11.6936C194.168 11.4284 194.231 11.0608 194.495 10.8717C194.76 10.6827 195.127 10.7457 195.316 11.0109C195.851 11.7645 196.386 12.5706 196.91 13.4082C197.083 13.6839 196.999 14.0488 196.724 14.2195C196.627 14.2799 196.519 14.3088 196.412 14.3088ZM157.725 14.02C157.607 14.02 157.489 13.9858 157.387 13.9123C157.122 13.7259 157.057 13.3583 157.246 13.0905C157.812 12.2844 158.391 11.5098 158.965 10.7851C159.167 10.5304 159.537 10.4884 159.791 10.6905C160.045 10.8927 160.087 11.263 159.886 11.5176C159.325 12.224 158.761 12.9802 158.208 13.7679C158.09 13.9333 157.909 14.02 157.725 14.02ZM193.116 9.67964C192.946 9.67964 192.778 9.60612 192.663 9.46433C192.052 8.71863 191.426 8.02281 190.804 7.39001C190.576 7.15895 190.579 6.7861 190.81 6.55766C191.04 6.32922 191.415 6.33185 191.641 6.56291C192.285 7.21934 192.936 7.94404 193.567 8.716C193.774 8.96807 193.738 9.3383 193.486 9.54573C193.379 9.635 193.248 9.67964 193.116 9.67964ZM161.264 9.57724C161.123 9.57724 160.981 9.52735 160.869 9.42232C160.63 9.20176 160.612 8.82891 160.832 8.58997C161.5 7.86002 162.185 7.16945 162.869 6.53928C163.107 6.31872 163.48 6.33447 163.7 6.57341C163.92 6.81235 163.904 7.18521 163.666 7.40577C163.008 8.01493 162.345 8.67924 161.7 9.38556C161.582 9.51422 161.422 9.57724 161.264 9.57724ZM165.446 5.74369C165.268 5.74369 165.089 5.66229 164.974 5.50737C164.78 5.24742 164.832 4.8772 165.092 4.68289C165.886 4.08685 166.704 3.54858 167.52 3.0812C167.803 2.91841 168.162 3.01819 168.322 3.29914C168.484 3.58272 168.385 3.94244 168.104 4.10261C167.328 4.54636 166.552 5.05837 165.795 5.62553C165.69 5.7043 165.566 5.74369 165.446 5.74369ZM189.132 5.65966C189.001 5.65966 188.872 5.61765 188.762 5.52838C188.025 4.93234 187.27 4.40719 186.521 3.96345C186.24 3.79803 186.148 3.4383 186.314 3.15735C186.479 2.8764 186.838 2.7845 187.118 2.94992C187.918 3.42255 188.72 3.98183 189.501 4.612C189.753 4.81681 189.795 5.18703 189.591 5.44173C189.473 5.58352 189.302 5.65966 189.132 5.65966ZM170.367 2.94729C170.133 2.94729 169.91 2.8055 169.819 2.57444C169.698 2.27248 169.847 1.92851 170.149 1.81035C171.061 1.448 172.002 1.15655 172.944 0.943867C173.258 0.870346 173.575 1.0699 173.646 1.38761C173.717 1.70532 173.518 2.02041 173.2 2.09131C172.317 2.29086 171.436 2.56394 170.579 2.90528C170.511 2.93416 170.437 2.94729 170.367 2.94729ZM184.274 2.83439C184.208 2.83439 184.14 2.82388 184.072 2.79763C183.634 2.63746 183.191 2.50354 182.748 2.39326C182.297 2.28036 181.849 2.18058 181.416 2.09656C181.097 2.03354 180.89 1.72371 180.952 1.40337C181.015 1.08303 181.325 0.875597 181.645 0.938614C182.095 1.02789 182.562 1.13292 183.031 1.24845C183.514 1.36661 183.999 1.51627 184.473 1.68957C184.78 1.79985 184.937 2.13857 184.824 2.44578C184.738 2.68472 184.513 2.83439 184.274 2.83439ZM178.719 1.71845C178.703 1.71845 178.687 1.71845 178.674 1.71583C177.738 1.64493 176.816 1.63968 175.922 1.69745C175.597 1.71845 175.316 1.47426 175.295 1.14867C175.274 0.823083 175.518 0.542131 175.843 0.521125C176.795 0.458108 177.772 0.463359 178.763 0.539505C179.089 0.563137 179.33 0.846714 179.306 1.1723C179.282 1.48214 179.023 1.71845 178.719 1.71845Z" fill="#F05A22"/>
</svg>
